<mxfile host="app.diagrams.net" agent="Mozilla/5.0 (X11; Linux x86_64) AppleWebKit/537.36 (KHTML, like Gecko) Chrome/140.0.0.0 Safari/537.36" version="28.2.5">
  <diagram name="Page-1" id="pselvoHd6stR0SP9FDcE">
    <mxGraphModel dx="872" dy="447" grid="1" gridSize="10" guides="1" tooltips="1" connect="1" arrows="1" fold="1" page="1" pageScale="1" pageWidth="850" pageHeight="1100" math="0" shadow="0">
      <root>
        <mxCell id="0" />
        <mxCell id="1" parent="0" />
        <mxCell id="zZ9ZWVkH8dacaGjYU3qX-3" style="edgeStyle=orthogonalEdgeStyle;rounded=0;orthogonalLoop=1;jettySize=auto;html=1;" parent="1" source="zZ9ZWVkH8dacaGjYU3qX-1" target="zZ9ZWVkH8dacaGjYU3qX-2" edge="1">
          <mxGeometry relative="1" as="geometry" />
        </mxCell>
        <mxCell id="2ufwh8cMUqlR136JYAbP-6" value="GRPC" style="edgeLabel;html=1;align=center;verticalAlign=middle;resizable=0;points=[];" vertex="1" connectable="0" parent="zZ9ZWVkH8dacaGjYU3qX-3">
          <mxGeometry x="-0.1818" y="-3" relative="1" as="geometry">
            <mxPoint as="offset" />
          </mxGeometry>
        </mxCell>
        <mxCell id="zZ9ZWVkH8dacaGjYU3qX-1" value="Simulator" style="rounded=1;whiteSpace=wrap;html=1;" parent="1" vertex="1">
          <mxGeometry x="130" y="200" width="120" height="60" as="geometry" />
        </mxCell>
        <mxCell id="zZ9ZWVkH8dacaGjYU3qX-6" style="edgeStyle=orthogonalEdgeStyle;rounded=0;orthogonalLoop=1;jettySize=auto;html=1;entryX=0;entryY=0.5;entryDx=0;entryDy=0;" parent="1" source="zZ9ZWVkH8dacaGjYU3qX-2" target="zZ9ZWVkH8dacaGjYU3qX-4" edge="1">
          <mxGeometry relative="1" as="geometry" />
        </mxCell>
        <mxCell id="zZ9ZWVkH8dacaGjYU3qX-7" value="ISO 8583" style="edgeLabel;html=1;align=center;verticalAlign=middle;resizable=0;points=[];" parent="zZ9ZWVkH8dacaGjYU3qX-6" vertex="1" connectable="0">
          <mxGeometry x="0.0545" y="1" relative="1" as="geometry">
            <mxPoint as="offset" />
          </mxGeometry>
        </mxCell>
        <mxCell id="zZ9ZWVkH8dacaGjYU3qX-2" value="&lt;div&gt;Card Scheme&lt;/div&gt;ISO 8583 Server" style="rounded=1;whiteSpace=wrap;html=1;" parent="1" vertex="1">
          <mxGeometry x="360" y="200" width="120" height="60" as="geometry" />
        </mxCell>
        <mxCell id="zZ9ZWVkH8dacaGjYU3qX-9" style="edgeStyle=orthogonalEdgeStyle;rounded=0;orthogonalLoop=1;jettySize=auto;html=1;entryX=0;entryY=0.5;entryDx=0;entryDy=0;" parent="1" source="zZ9ZWVkH8dacaGjYU3qX-4" target="zZ9ZWVkH8dacaGjYU3qX-8" edge="1">
          <mxGeometry relative="1" as="geometry" />
        </mxCell>
        <mxCell id="2ufwh8cMUqlR136JYAbP-3" value="Json" style="edgeLabel;html=1;align=center;verticalAlign=middle;resizable=0;points=[];" vertex="1" connectable="0" parent="zZ9ZWVkH8dacaGjYU3qX-9">
          <mxGeometry y="-2" relative="1" as="geometry">
            <mxPoint as="offset" />
          </mxGeometry>
        </mxCell>
        <mxCell id="zZ9ZWVkH8dacaGjYU3qX-4" value="Gateway&lt;div&gt;ISO 8583 Client&lt;/div&gt;" style="rounded=1;whiteSpace=wrap;html=1;" parent="1" vertex="1">
          <mxGeometry x="590" y="200" width="120" height="60" as="geometry" />
        </mxCell>
        <mxCell id="zZ9ZWVkH8dacaGjYU3qX-5" value="K8S" style="rounded=1;whiteSpace=wrap;html=1;verticalAlign=top;" parent="1" vertex="1">
          <mxGeometry x="940" y="50" width="320" height="240" as="geometry" />
        </mxCell>
        <mxCell id="zZ9ZWVkH8dacaGjYU3qX-8" value="Kafka Cluster" style="rounded=1;whiteSpace=wrap;html=1;" parent="1" vertex="1">
          <mxGeometry x="770" y="200" width="120" height="60" as="geometry" />
        </mxCell>
        <mxCell id="2ufwh8cMUqlR136JYAbP-1" style="edgeStyle=orthogonalEdgeStyle;rounded=0;orthogonalLoop=1;jettySize=auto;html=1;" edge="1" parent="1" source="zZ9ZWVkH8dacaGjYU3qX-11" target="zZ9ZWVkH8dacaGjYU3qX-12">
          <mxGeometry relative="1" as="geometry" />
        </mxCell>
        <mxCell id="2ufwh8cMUqlR136JYAbP-2" style="edgeStyle=orthogonalEdgeStyle;rounded=0;orthogonalLoop=1;jettySize=auto;html=1;" edge="1" parent="1" source="zZ9ZWVkH8dacaGjYU3qX-11" target="zZ9ZWVkH8dacaGjYU3qX-8">
          <mxGeometry relative="1" as="geometry" />
        </mxCell>
        <mxCell id="2ufwh8cMUqlR136JYAbP-4" value="Json" style="edgeLabel;html=1;align=center;verticalAlign=middle;resizable=0;points=[];" vertex="1" connectable="0" parent="2ufwh8cMUqlR136JYAbP-2">
          <mxGeometry x="-0.2" y="4" relative="1" as="geometry">
            <mxPoint as="offset" />
          </mxGeometry>
        </mxCell>
        <mxCell id="zZ9ZWVkH8dacaGjYU3qX-11" value="Authorization" style="rounded=1;whiteSpace=wrap;html=1;" parent="1" vertex="1">
          <mxGeometry x="1055" y="200" width="90" height="60" as="geometry" />
        </mxCell>
        <mxCell id="zZ9ZWVkH8dacaGjYU3qX-12" value="PostgresDB" style="rounded=1;whiteSpace=wrap;html=1;" parent="1" vertex="1">
          <mxGeometry x="1040" y="360" width="120" height="60" as="geometry" />
        </mxCell>
        <mxCell id="zZ9ZWVkH8dacaGjYU3qX-15" style="edgeStyle=orthogonalEdgeStyle;rounded=0;orthogonalLoop=1;jettySize=auto;html=1;entryX=0.5;entryY=0;entryDx=0;entryDy=0;" parent="1" source="zZ9ZWVkH8dacaGjYU3qX-14" target="zZ9ZWVkH8dacaGjYU3qX-4" edge="1">
          <mxGeometry relative="1" as="geometry" />
        </mxCell>
        <mxCell id="zZ9ZWVkH8dacaGjYU3qX-14" value="Console" style="rounded=1;whiteSpace=wrap;html=1;" parent="1" vertex="1">
          <mxGeometry x="1040" y="90" width="120" height="60" as="geometry" />
        </mxCell>
      </root>
    </mxGraphModel>
  </diagram>
</mxfile>
